<?xml version="1.0" encoding="utf-8"?>
<!-- Generator: Adobe Illustrator 21.0.0, SVG Export Plug-In . SVG Version: 6.00 Build 0)  -->
<svg version="1.0" id="Capa_1" xmlns="http://www.w3.org/2000/svg" xmlns:xlink="http://www.w3.org/1999/xlink" x="0px" y="0px"
	 viewBox="0 0 640 480" style="enable-background:new 0 0 640 480;" xml:space="preserve">
<style type="text/css">
	.st0{fill:#12235F;}
	.st1{fill:#B1132F;}
</style>
<g>
	<g>
		<g>
			<path class="st0" d="M283.4,270.1l6.1,18.1l6-18.1h3.2l-7.7,21.2h-3l-7.7-21.2H283.4z"/>
			<path class="st0" d="M301.5,270.1h2.6v2.9h-2.6V270.1z M301.5,275.9h2.6v15.4h-2.6V275.9z"/>
			<path class="st0" d="M319.3,276.7c1.1,0.8,1.8,2.3,2,4.4h-2.5c-0.2-1-0.5-1.7-1.1-2.4c-0.5-0.6-1.4-0.9-2.6-0.9
				c-1.7,0-2.8,0.8-3.6,2.4c-0.5,1-0.7,2.3-0.7,3.9c0,1.6,0.3,2.9,1,3.9c0.7,1.1,1.7,1.6,3.1,1.6c1.1,0,1.9-0.3,2.6-1
				c0.6-0.7,1.1-1.6,1.3-2.7h2.5c-0.3,2.1-1,3.6-2.2,4.5c-1.2,0.9-2.6,1.4-4.4,1.4c-2,0-3.6-0.7-4.8-2.2c-1.2-1.5-1.8-3.3-1.8-5.5
				c0-2.7,0.7-4.8,2-6.3c1.3-1.5,3-2.3,5-2.3C316.8,275.4,318.2,275.8,319.3,276.7z"/>
			<path class="st0" d="M325.3,271.5h2.6v4.3h2.5v2.1h-2.5v10.1c0,0.5,0.2,0.9,0.6,1.1c0.2,0.1,0.5,0.2,1,0.2c0.1,0,0.3,0,0.4,0
				c0.1,0,0.3,0,0.5,0v2.1c-0.3,0.1-0.6,0.1-0.9,0.2c-0.3,0-0.7,0.1-1,0.1c-1.2,0-2-0.3-2.5-0.9c-0.4-0.6-0.6-1.4-0.6-2.4V278h-2.1
				v-2.1h2.1V271.5z"/>
			<path class="st0" d="M345.1,277.4c1.4,1.3,2.1,3.3,2.1,5.9c0,2.5-0.6,4.6-1.8,6.2c-1.2,1.6-3.1,2.4-5.6,2.4c-2.1,0-3.8-0.7-5-2.2
				c-1.2-1.4-1.9-3.4-1.9-5.8c0-2.6,0.7-4.7,2-6.2c1.3-1.5,3.1-2.3,5.3-2.3C342.1,275.4,343.8,276.1,345.1,277.4z M343.5,287.7
				c0.6-1.3,0.9-2.8,0.9-4.4c0-1.4-0.2-2.6-0.7-3.5c-0.7-1.4-2-2.1-3.7-2.1c-1.6,0-2.7,0.6-3.4,1.8c-0.7,1.2-1.1,2.7-1.1,4.4
				c0,1.6,0.4,3,1.1,4.1c0.7,1.1,1.8,1.6,3.4,1.6C341.7,289.6,342.9,289,343.5,287.7z"/>
			<path class="st0" d="M351.4,275.9h2.5v2.7c0.2-0.5,0.7-1.2,1.5-1.9c0.8-0.7,1.7-1.1,2.7-1.1c0,0,0.1,0,0.2,0c0.1,0,0.3,0,0.6,0.1
				v2.7c-0.2,0-0.3,0-0.4-0.1c-0.1,0-0.3,0-0.4,0c-1.3,0-2.3,0.4-3,1.3c-0.7,0.8-1.1,1.8-1.1,2.9v8.9h-2.6V275.9z"/>
			<path class="st0" d="M362.1,270.1h2.6v2.9h-2.6V270.1z M362.1,275.9h2.6v15.4h-2.6V275.9z"/>
			<path class="st0" d="M377.8,282c0.6-0.1,1-0.3,1.2-0.7c0.1-0.2,0.2-0.6,0.2-1c0-0.9-0.3-1.5-0.9-1.9c-0.6-0.4-1.5-0.6-2.7-0.6
				c-1.4,0-2.3,0.4-2.9,1.1c-0.3,0.4-0.5,1-0.6,1.8h-2.4c0-1.9,0.7-3.2,1.9-4c1.2-0.8,2.6-1.1,4.1-1.1c1.8,0,3.3,0.3,4.4,1
				c1.1,0.7,1.7,1.8,1.7,3.2v8.9c0,0.3,0.1,0.5,0.2,0.6c0.1,0.2,0.3,0.2,0.7,0.2c0.1,0,0.2,0,0.4,0c0.1,0,0.3,0,0.5-0.1v1.9
				c-0.4,0.1-0.7,0.2-0.9,0.2c-0.2,0-0.5,0-0.9,0c-0.9,0-1.5-0.3-1.9-1c-0.2-0.3-0.4-0.8-0.4-1.4c-0.5,0.7-1.3,1.3-2.3,1.8
				c-1,0.5-2.1,0.8-3.3,0.8c-1.4,0-2.6-0.4-3.5-1.3c-0.9-0.9-1.4-2-1.4-3.3c0-1.4,0.4-2.5,1.3-3.3c0.9-0.8,2.1-1.3,3.5-1.5
				L377.8,282z M372.4,289c0.6,0.4,1.2,0.6,2,0.6c0.9,0,1.8-0.2,2.7-0.6c1.4-0.7,2.2-1.9,2.2-3.4v-2.1c-0.3,0.2-0.7,0.4-1.2,0.5
				c-0.5,0.1-1,0.2-1.5,0.3l-1.6,0.2c-0.9,0.1-1.7,0.3-2.1,0.6c-0.8,0.5-1.2,1.2-1.2,2.2C371.5,288,371.8,288.6,372.4,289z"/>
		</g>
	</g>
	<g>
		<g>
			<polygon class="st1" points="250.5,269.3 258.8,254.9 242.3,254.9 220.3,216.4 212,230.8 234,269.3 			"/>
			<polygon class="st1" points="220.3,177.9 203.8,177.9 212,192.3 190,230.8 206.5,230.8 228.5,192.3 			"/>
			<polygon class="st1" points="157,250.1 165.2,264.5 173.5,250.1 217.5,250.1 209.3,235.7 165.2,235.7 			"/>
			<polygon class="st0" points="261.5,250.1 269.8,235.7 253.3,235.7 231.3,197.1 223,211.6 245,250.1 			"/>
			<polygon class="st0" points="198.3,177.9 181.8,177.9 190,192.3 168,230.8 184.5,230.8 206.5,192.3 			"/>
			<polygon class="st0" points="168,269.3 176.2,283.8 184.5,269.3 228.5,269.3 220.3,254.9 176.2,254.9 			"/>
		</g>
		<g>
			<g>
				<path class="st0" d="M510.2,247h2.8c0.4,0,1.2,0,1.8,0.4c0.6,0.4,0.9,1,0.9,1.6c0,0.6-0.2,1.1-0.6,1.4c-0.3,0.3-0.7,0.4-0.9,0.5
					c0.8,0.2,1.1,0.6,1.2,1.5c0.1,0.9,0.2,1.6,0.5,2.5h-1.2c-0.2-0.5-0.3-1.5-0.4-2.1c-0.1-1.2-0.4-1.5-1.7-1.5h-1.4v3.6h-1.1V247
					 M511.2,250.4h1.7c0.2,0,0.8,0,1.1-0.2c0.2-0.1,0.5-0.4,0.5-1.1c0-1.3-1.1-1.3-1.6-1.3h-1.7V250.4z"/>
				<path class="st0" d="M519.4,251c0,3.6-2.9,6.4-6.4,6.4c-3.5,0-6.4-2.9-6.4-6.4c0-3.6,2.9-6.4,6.4-6.4
					C516.6,244.5,519.4,247.4,519.4,251z M513,244c-3.8,0-7,3.1-7,7c0,3.9,3.1,7,7,7c3.8,0,7-3.1,7-7C520,247.1,516.9,244,513,244z"
					/>
				<path class="st0" d="M281.8,207.5h6.6v44.7h26.4v5.6h-33.1V207.5z"/>
				<path class="st0" d="M351.7,257.7c-1.1,0.6-2.4,1-4.3,1c-3.1,0-5-1.7-5-5.6c-3.3,3.9-7.7,5.6-12.7,5.6c-6.6,0-11.9-3-11.9-10.2
					c0-8.3,6.1-10,12.2-11.2c6.6-1.3,12.2-0.8,12.2-5.4c0-5.2-4.3-6.1-8.1-6.1c-5,0-8.7,1.6-9,6.9h-5.9c0.3-9,7.3-12.2,15.3-12.2
					c6.5,0,13.6,1.5,13.6,10v18.8c0,2.8,0,4.1,1.9,4.1c0.5,0,1-0.1,1.8-0.3V257.7z M342,239c-2.3,1.7-6.8,1.8-10.8,2.5
					c-3.9,0.7-7.2,2.1-7.2,6.6c0,4,3.3,5.4,7,5.4c7.8,0,11-4.9,11-8.3V239z"/>
				<path class="st0" d="M394.2,222.2c-0.8-7.2-5.5-10.3-12.4-10.3c-5.6,0-11.2,2-11.2,8.6c0,6.2,8,7.1,16,9c8,1.8,16,4.7,16,14.5
					c0,10.7-10.4,15-19.5,15c-11.2,0-20.6-5.5-20.6-17.8h6.3c0,8.5,7,12.1,14.5,12.1c6,0,12.6-1.9,12.6-9.2c0-6.9-8-8.1-15.9-9.9
					c-8-1.8-16-4.1-16-13.3c0-10.2,9-14.8,18.1-14.8c10.2,0,18,4.9,18.4,16H394.2z"/>
				<path class="st0" d="M439.4,257.7c-1.1,0.6-2.4,1-4.3,1c-3.1,0-5-1.7-5-5.6c-3.3,3.9-7.7,5.6-12.7,5.6c-6.6,0-12-3-12-10.2
					c0-8.3,6.1-10,12.2-11.2c6.6-1.3,12.2-0.8,12.2-5.4c0-5.2-4.3-6.1-8-6.1c-5,0-8.7,1.6-9,6.9h-5.9c0.4-9,7.3-12.2,15.3-12.2
					c6.5,0,13.6,1.5,13.6,10v18.8c0,2.8,0,4.1,1.9,4.1c0.5,0,1.1-0.1,1.8-0.3V257.7z M429.8,239c-2.3,1.7-6.8,1.8-10.8,2.5
					c-3.9,0.7-7.3,2.1-7.3,6.6c0,4,3.4,5.4,7,5.4c7.8,0,11.1-4.9,11.1-8.3V239z"/>
				<path class="st0" d="M444,207.5h5.9v50.4H444V207.5z"/>
				<path class="st0" d="M457.4,207.5h5.9v50.4h-5.9V207.5z"/>
				<path class="st0" d="M500.9,246.3c-1.6,8-7.3,12.4-15.4,12.4c-11.5,0-17-8-17.3-19.2c0-10.9,7.1-19,17-19
					c12.8,0,16.7,12.1,16.4,20.9h-27c-0.2,6.4,3.4,12,11.2,12c4.9,0,8.3-2.4,9.4-7.1H500.9z M495.2,236.1
					c-0.3-5.7-4.6-10.3-10.4-10.3c-6.2,0-9.9,4.7-10.3,10.3H495.2z"/>
			</g>
		</g>
		<g>
			<path class="st0" d="M284.6,178.4v13c0,1.5,0.3,2.8,0.9,3.8c0.9,1.5,2.3,2.3,4.3,2.3c2.4,0,4.1-0.8,5-2.5
				c0.5-0.9,0.7-2.1,0.7-3.6v-13h2.9v11.8c0,2.6-0.3,4.6-1,6c-1.3,2.5-3.7,3.8-7.3,3.8c-3.6,0-6-1.3-7.2-3.8c-0.7-1.4-1-3.4-1-6
				v-11.8H284.6z"/>
			<path class="st0" d="M308.2,184.1h2.4v2.2c0.7-0.9,1.5-1.5,2.3-1.9c0.8-0.4,1.7-0.6,2.7-0.6c2.2,0,3.6,0.8,4.4,2.3
				c0.4,0.8,0.6,2,0.6,3.6v9.8h-2.6v-9.6c0-0.9-0.1-1.7-0.4-2.3c-0.5-1-1.3-1.4-2.5-1.4c-0.6,0-1.1,0.1-1.5,0.2
				c-0.7,0.2-1.3,0.6-1.9,1.3c-0.4,0.5-0.7,1-0.8,1.6c-0.1,0.5-0.2,1.3-0.2,2.3v8h-2.6V184.1z"/>
			<path class="st0" d="M330.3,178.4h2.6v2.9h-2.6V178.4z M330.3,184.1h2.6v15.2h-2.6V184.1z"/>
			<path class="st0" d="M343.9,184.1l4.1,12.5l4.3-12.5h2.8l-5.8,15.3h-2.7l-5.6-15.3H343.9z"/>
			<path class="st0" d="M372.6,184.5c1,0.5,1.8,1.2,2.3,2c0.5,0.8,0.9,1.7,1,2.7c0.1,0.7,0.2,1.8,0.2,3.4h-11.1
				c0,1.6,0.4,2.8,1.1,3.7c0.7,0.9,1.7,1.4,3.2,1.4c1.3,0,2.4-0.4,3.2-1.3c0.4-0.5,0.8-1.1,0.9-1.8h2.5c-0.1,0.6-0.3,1.2-0.7,1.9
				c-0.4,0.7-0.8,1.3-1.3,1.7c-0.8,0.8-1.7,1.3-2.9,1.5c-0.6,0.2-1.3,0.2-2.1,0.2c-1.9,0-3.5-0.7-4.8-2.1c-1.3-1.4-2-3.3-2-5.8
				c0-2.5,0.7-4.5,2-6c1.3-1.5,3.1-2.3,5.2-2.3C370.6,183.7,371.6,184,372.6,184.5z M373.5,190.5c-0.1-1.1-0.3-2-0.7-2.7
				c-0.7-1.2-1.9-1.9-3.5-1.9c-1.2,0-2.2,0.4-2.9,1.3c-0.8,0.9-1.2,1.9-1.3,3.3H373.5z"/>
			<path class="st0" d="M385.4,184.1h2.4v2.6c0.2-0.5,0.7-1.1,1.5-1.9c0.8-0.7,1.7-1.1,2.7-1.1c0,0,0.1,0,0.2,0c0.1,0,0.3,0,0.6,0.1
				v2.7c-0.2,0-0.3,0-0.4-0.1c-0.1,0-0.3,0-0.4,0c-1.3,0-2.3,0.4-3,1.3c-0.7,0.8-1,1.8-1,2.9v8.8h-2.6V184.1z"/>
			<path class="st0" d="M402.4,194.6c0.1,0.9,0.3,1.5,0.7,2c0.7,0.8,1.8,1.2,3.4,1.2c1,0,1.8-0.2,2.6-0.6c0.7-0.4,1.1-1.1,1.1-1.9
				c0-0.7-0.3-1.2-0.9-1.5c-0.4-0.2-1.1-0.5-2.2-0.7l-2.1-0.5c-1.3-0.3-2.3-0.7-2.9-1.1c-1.1-0.7-1.7-1.7-1.7-2.9
				c0-1.4,0.5-2.6,1.6-3.5c1.1-0.9,2.5-1.3,4.3-1.3c2.3,0,4,0.7,5.1,2c0.6,0.9,1,1.8,0.9,2.8h-2.4c-0.1-0.6-0.3-1.1-0.6-1.6
				c-0.6-0.7-1.7-1-3.1-1c-1,0-1.7,0.2-2.3,0.6c-0.5,0.4-0.8,0.9-0.8,1.5c0,0.7,0.3,1.2,1,1.6c0.4,0.2,1,0.4,1.7,0.6l1.7,0.4
				c1.9,0.4,3.1,0.9,3.8,1.3c1,0.7,1.5,1.7,1.5,3.1c0,1.4-0.5,2.5-1.6,3.5c-1,1-2.6,1.5-4.8,1.5c-2.3,0-3.9-0.5-4.9-1.6
				c-1-1-1.5-2.3-1.5-3.8H402.4z"/>
			<path class="st0" d="M421.4,178.4h2.6v2.9h-2.6V178.4z M421.4,184.1h2.6v15.2h-2.6V184.1z"/>
			<path class="st0" d="M442.1,184.5c0.5,0.3,1,0.8,1.6,1.5v-7.7h2.5v21.1h-2.3v-2.1c-0.6,0.9-1.3,1.6-2.1,2
				c-0.8,0.4-1.7,0.6-2.8,0.6c-1.7,0-3.2-0.7-4.4-2.2c-1.2-1.4-1.9-3.3-1.9-5.7c0-2.2,0.6-4.2,1.7-5.8c1.1-1.6,2.8-2.5,4.9-2.5
				C440.4,183.8,441.3,184,442.1,184.5z M436.4,196c0.7,1.1,1.8,1.7,3.3,1.7c1.2,0,2.2-0.5,2.9-1.5c0.8-1,1.1-2.5,1.1-4.4
				c0-1.9-0.4-3.4-1.2-4.3c-0.8-0.9-1.8-1.4-2.9-1.4c-1.3,0-2.3,0.5-3.1,1.5c-0.8,1-1.2,2.4-1.2,4.4
				C435.4,193.5,435.7,194.9,436.4,196z"/>
			<path class="st0" d="M464,190.1c0.6-0.1,1-0.3,1.2-0.7c0.1-0.2,0.2-0.6,0.2-1c0-0.9-0.3-1.5-0.9-1.9c-0.6-0.4-1.5-0.6-2.7-0.6
				c-1.3,0-2.3,0.4-2.9,1.1c-0.3,0.4-0.5,1-0.6,1.8h-2.4c0-1.9,0.7-3.2,1.8-3.9c1.2-0.7,2.5-1.1,4.1-1.1c1.8,0,3.3,0.3,4.4,1
				c1.1,0.7,1.7,1.8,1.7,3.2v8.8c0,0.3,0.1,0.5,0.2,0.6c0.1,0.2,0.3,0.2,0.7,0.2c0.1,0,0.2,0,0.4,0c0.1,0,0.3,0,0.5-0.1v1.9
				c-0.4,0.1-0.7,0.2-0.9,0.2c-0.2,0-0.5,0-0.9,0c-0.9,0-1.5-0.3-1.9-0.9c-0.2-0.3-0.4-0.8-0.4-1.4c-0.5,0.7-1.3,1.3-2.3,1.8
				c-1,0.5-2.1,0.8-3.2,0.8c-1.4,0-2.6-0.4-3.5-1.3c-0.9-0.9-1.3-1.9-1.3-3.2c0-1.4,0.4-2.5,1.3-3.3c0.9-0.8,2-1.3,3.5-1.4
				L464,190.1z M458.6,197.1c0.5,0.4,1.2,0.6,1.9,0.6c0.9,0,1.8-0.2,2.6-0.6c1.4-0.7,2.1-1.8,2.1-3.4v-2.1c-0.3,0.2-0.7,0.4-1.2,0.5
				c-0.5,0.1-1,0.2-1.5,0.3l-1.6,0.2c-0.9,0.1-1.6,0.3-2.1,0.6c-0.8,0.4-1.2,1.2-1.2,2.1C457.8,196,458.1,196.6,458.6,197.1z"/>
			<path class="st0" d="M486.4,184.5c0.5,0.3,1,0.8,1.6,1.5v-7.7h2.5v21.1h-2.3v-2.1c-0.6,0.9-1.3,1.6-2.1,2
				c-0.8,0.4-1.7,0.6-2.8,0.6c-1.7,0-3.2-0.7-4.4-2.2c-1.2-1.4-1.9-3.3-1.9-5.7c0-2.2,0.6-4.2,1.7-5.8c1.1-1.6,2.8-2.5,4.9-2.5
				C484.6,183.8,485.6,184,486.4,184.5z M480.6,196c0.7,1.1,1.8,1.7,3.3,1.7c1.2,0,2.2-0.5,2.9-1.5c0.8-1,1.1-2.5,1.1-4.4
				c0-1.9-0.4-3.4-1.2-4.3c-0.8-0.9-1.8-1.4-2.9-1.4c-1.3,0-2.3,0.5-3.1,1.5c-0.8,1-1.2,2.4-1.2,4.4
				C479.6,193.5,479.9,194.9,480.6,196z"/>
		</g>
	</g>
</g>
</svg>
